<?xml version="1.0" standalone="no"?>
<!DOCTYPE svg PUBLIC "-//W3C//DTD SVG 20010904//EN"
 "http://www.w3.org/TR/2001/REC-SVG-20010904/DTD/svg10.dtd">
<svg version="1.0" xmlns="http://www.w3.org/2000/svg"
 width="801.000000pt" height="801.000000pt" viewBox="0 0 801.000000 801.000000"
 preserveAspectRatio="xMidYMid meet">
<metadata>
Created by potrace 1.14, written by Peter Selinger 2001-2017
</metadata>
<g transform="translate(0.000000,801.000000) scale(0.100000,-0.100000)"
fill="#000000" stroke="none">
<path d="M0 4005 l0 -4005 4005 0 4005 0 0 4005 0 4005 -4005 0 -4005 0 0
-4005z m4447 3309 c17 -3 24 -15 32 -57 15 -76 47 -300 80 -555 16 -123 31
-225 34 -228 2 -2 58 -20 123 -38 185 -53 386 -138 521 -221 l41 -25 309 315
c170 173 316 315 324 315 8 0 192 -178 409 -395 391 -391 395 -395 380 -419
-16 -27 -32 -44 -369 -393 l-223 -233 57 -96 c95 -158 189 -386 226 -546 l13
-58 36 5 c19 3 143 9 275 15 132 5 311 12 397 16 l157 7 31 -31 31 -32 -3
-586 c-4 -682 9 -620 -118 -610 -41 3 -181 13 -310 21 -129 9 -286 22 -349 29
-78 8 -114 9 -116 1 -1 -5 -25 -80 -52 -165 -52 -159 -131 -342 -190 -440 -18
-30 -33 -60 -33 -67 0 -11 186 -221 422 -476 95 -102 128 -144 128 -163 0 -20
-63 -91 -288 -322 -159 -164 -335 -345 -391 -404 -57 -60 -111 -108 -121 -108
-10 0 -147 129 -306 287 -159 157 -280 279 -268 270 11 -10 23 -16 25 -15 2 2
3 1 2 -1 -3 -4 37 -41 45 -41 2 0 -1 7 -8 15 -17 21 -5 19 16 -3 17 -16 18
-16 11 1 -4 10 -2 28 4 39 9 16 8 19 -2 13 -9 -6 -10 -3 -5 11 12 31 12 36 -4
42 -8 2 -12 1 -8 -2 3 -4 -2 -16 -13 -27 -26 -26 -34 -24 -15 3 9 12 16 26 16
30 0 16 -29 8 -57 -15 -102 -85 -411 -238 -610 -303 -120 -39 -142 -50 -147
-69 -6 -22 -73 -498 -96 -675 -14 -106 -27 -147 -50 -160 -25 -13 -850 -13
-884 0 -29 11 -25 -13 -66 340 -18 146 -38 319 -46 385 -8 66 -16 125 -18 130
-2 6 -31 16 -65 23 -40 9 -59 17 -55 24 5 7 2 8 -5 3 -20 -12 -223 66 -229 88
-3 12 -7 15 -12 8 -4 -8 -32 0 -84 24 -42 20 -74 40 -71 45 3 4 -3 6 -12 4
-23 -4 -189 98 -185 115 1 7 -2 10 -6 7 -14 -8 -123 74 -116 86 4 7 2 8 -4 4
-15 -9 -103 64 -95 77 3 6 1 7 -5 3 -6 -3 -44 23 -84 58 -146 128 -344 358
-468 544 -41 63 -56 79 -63 67 -9 -17 -27 -20 -27 -4 0 5 4 8 9 5 19 -12 20
28 2 58 -119 193 -228 508 -267 769 -30 207 -29 538 2 812 l6 51 -35 11 c-20
6 -41 7 -48 2 -8 -5 -23 -8 -34 -8 l-20 0 20 9 c20 9 -73 14 -272 15 -50 0
-89 3 -86 8 2 4 -35 6 -84 5 l-88 -2 70 -6 c39 -4 61 -8 50 -9 -11 -2 -24 -3
-28 -2 -5 1 -6 -3 -2 -9 3 -5 16 -10 27 -10 12 0 19 -2 16 -5 -2 -3 -27 -2
-53 2 -37 5 -44 8 -30 14 13 5 0 8 -38 8 -32 1 -56 -3 -53 -7 2 -4 -16 -8 -42
-9 -27 -1 -41 2 -33 6 10 6 9 10 -4 14 -9 4 -13 3 -10 -3 4 -6 -8 -10 -29 -10
-19 0 -38 -5 -42 -12 -4 -6 -3 -8 4 -4 5 3 13 0 15 -6 4 -10 8 -10 15 1 14 20
71 4 82 -22 8 -19 12 -20 9 -1 -1 7 22 24 32 24 4 0 9 -9 12 -20 3 -11 11 -20
17 -20 9 0 9 4 -1 16 -10 13 -10 17 2 25 12 7 12 9 0 9 -8 0 -11 3 -8 7 4 3
15 -1 25 -10 10 -10 21 -16 23 -15 2 2 -2 -2 -9 -8 -10 -9 -8 -13 8 -17 11 -3
20 -11 20 -17 0 -7 -8 -10 -19 -7 -13 3 -18 0 -17 -11 2 -9 14 -20 27 -23 13
-4 21 -8 17 -9 -18 -5 -33 -5 -38 0 -28 31 -118 47 -138 25 -4 -4 14 -5 40 -3
26 3 46 2 45 -3 -1 -5 12 -20 28 -35 27 -23 27 -24 4 -11 -24 14 -28 14 -42 0
-13 -13 -19 -14 -31 -3 -9 7 -16 9 -16 4 0 -4 -5 -3 -12 4 -16 16 -28 15 -28
-3 0 -8 9 -15 20 -15 17 0 19 -2 8 -14 -9 -10 -15 -11 -20 -2 -4 6 -8 7 -8 1
0 -5 -5 -2 -11 8 -8 13 -18 17 -35 13 -22 -6 -24 -4 -19 17 5 17 2 26 -9 30
-10 4 -16 1 -16 -9 0 -8 -4 -12 -10 -9 -5 3 -10 -1 -10 -10 0 -11 5 -15 14
-12 10 4 12 0 9 -14 -3 -10 -8 -17 -12 -14 -4 2 -9 -94 -10 -213 -6 -475 -6
-624 -1 -632 3 -5 28 -11 55 -13 44 -3 43 -4 -10 -3 l-60 1 -5 585 c-3 322 -2
595 2 607 4 12 19 30 33 39 24 16 52 16 453 0 235 -9 439 -19 455 -22 18 -4
28 -1 31 8 71 237 160 458 243 602 l45 79 -74 76 c-41 42 -176 180 -301 306
-239 244 -256 262 -257 283 0 8 173 188 385 400 l384 386 321 -319 c177 -176
323 -322 325 -324 2 -2 46 22 97 53 165 98 398 199 544 236 l41 10 11 73 c6
39 25 162 42 271 17 110 39 260 50 333 10 74 23 140 30 148 7 9 36 15 78 17
96 4 803 -2 829 -8z m-3302 -2814 c-3 -5 -12 -10 -18 -10 -7 0 -6 4 3 10 19
12 23 12 15 0z m283 3 c-15 -2 -42 -2 -60 0 -18 2 -6 4 27 4 33 0 48 -2 33 -4z
m-261 -29 c-3 -3 -12 -4 -19 -1 -8 3 -5 6 6 6 11 1 17 -2 13 -5z m-132 -14 c3
-5 1 -10 -4 -10 -6 0 -11 5 -11 10 0 6 2 10 4 10 3 0 8 -4 11 -10z m90 -10 c3
-5 1 -10 -4 -10 -6 0 -11 5 -11 10 0 6 2 10 4 10 3 0 8 -4 11 -10z m375 -24
c0 -2 -8 -10 -17 -17 -16 -13 -17 -12 -4 4 13 16 21 21 21 13z m-597 -93 c-7
-2 -19 -2 -25 0 -7 3 -2 5 12 5 14 0 19 -2 13 -5z m-100 -41 c7 -9 6 -11 -7
-6 -9 3 -16 16 -15 28 0 14 2 16 6 6 3 -8 10 -21 16 -28z m-48 17 c-4 -6 -9
-8 -13 -5 -3 3 -11 -2 -18 -12 -12 -15 -12 -15 -7 6 3 13 13 22 25 22 11 0 16
-5 13 -11z m-15 -81 c0 -6 -6 -5 -15 2 -8 7 -15 14 -15 16 0 2 7 1 15 -2 8 -4
15 -11 15 -16z m1 -59 c-10 -23 -10 -22 -7 6 6 39 7 42 12 29 3 -6 0 -22 -5
-35z m49 -24 c0 -8 -2 -15 -4 -15 -2 0 -6 7 -10 15 -3 8 -1 15 4 15 6 0 10 -7
10 -15z m108 -662 c-10 -2 -26 -2 -35 0 -10 3 -2 5 17 5 19 0 27 -2 18 -5z
m915 -756 c-3 -5 -9 -3 -14 4 -7 11 -9 10 -9 -3 0 -9 -3 -18 -7 -20 -5 -1 -16
-16 -25 -33 -10 -16 -24 -29 -32 -29 -9 1 -12 -4 -9 -14 4 -10 2 -13 -5 -8 -7
4 -12 1 -12 -9 0 -11 -5 -15 -16 -11 -9 3 -12 2 -9 -5 9 -14 -15 -41 -31 -35
-7 3 -11 0 -8 -7 2 -7 -6 -22 -18 -33 -52 -47 -104 -110 -100 -122 2 -7 -2
-10 -12 -6 -9 3 -16 2 -16 -4 0 -6 5 -12 10 -14 7 -2 5 -11 -4 -23 -15 -20
-15 -20 -9 3 3 13 1 22 -6 22 -11 0 -14 -11 -12 -40 0 -9 -2 -10 -5 -3 -8 19
-32 4 -27 -17 3 -10 0 -21 -6 -24 -5 -4 -8 -14 -5 -24 5 -14 4 -14 -4 -2 -8
10 -8 18 0 27 6 8 8 16 4 20 -3 4 -14 -4 -24 -17 -9 -13 -29 -36 -43 -51 -15
-16 -25 -29 -24 -31 2 -2 -8 -11 -21 -21 -13 -10 -24 -14 -24 -8 0 14 37 58
175 206 199 216 258 275 267 269 5 -3 7 0 6 8 -2 7 3 12 10 10 8 -1 11 2 7 9
-4 6 5 24 21 40 19 20 30 25 35 17 4 -7 5 -16 2 -21z m-458 -625 c-3 -3 -11 0
-18 7 -9 10 -8 11 6 5 10 -3 15 -9 12 -12z m165 -169 c0 -8 -9 0 -50 45 l-45
47 48 -45 c26 -24 47 -45 47 -47z m3895 -13 c3 -5 1 -10 -4 -10 -6 0 -11 5
-11 10 0 6 2 10 4 10 3 0 8 -4 11 -10z m-3684 -197 c13 -16 12 -17 -3 -4 -10
7 -18 15 -18 17 0 8 8 3 21 -13z m40 -40 c13 -16 12 -17 -3 -4 -17 13 -22 21
-14 21 2 0 10 -8 17 -17z m160 -160 c13 -16 12 -17 -3 -4 -10 7 -18 15 -18 17
0 8 8 3 21 -13z m120 -120 c13 -16 12 -17 -3 -4 -10 7 -18 15 -18 17 0 8 8 3
21 -13z"/>
<path d="M3750 5999 c-409 -52 -776 -230 -1077 -522 -166 -161 -290 -332 -399
-552 -136 -274 -193 -512 -201 -837 -8 -296 23 -485 119 -743 136 -364 320
-616 643 -881 78 -64 180 -127 321 -197 161 -81 289 -129 446 -167 126 -31
342 -58 372 -47 13 5 16 26 18 134 1 94 3 112 7 68 4 -36 11 -61 19 -62 6 -2
12 6 12 18 0 11 5 17 10 14 6 -4 7 -11 4 -17 -4 -7 4 -8 25 -3 17 3 36 3 43
-2 23 -14 61 -14 69 -1 7 10 9 9 9 -4 0 -12 5 -15 17 -11 12 5 14 3 8 -8 -8
-12 -6 -12 8 0 11 9 17 10 17 2 0 -6 12 -11 28 -11 20 0 23 -3 12 -10 -10 -6
-5 -9 19 -8 35 1 58 -20 38 -35 -8 -6 -7 -7 3 -4 8 2 14 10 12 17 -2 10 1 11
10 3 35 -28 119 -14 288 48 74 27 210 91 210 98 0 4 -22 33 -48 66 -27 33 -93
119 -147 190 l-98 130 -386 0 c-364 0 -392 1 -488 23 -282 62 -490 175 -696
379 -273 270 -414 665 -377 1053 31 333 163 621 381 838 251 248 547 384 888
409 l91 6 1 96 c1 53 2 101 4 106 1 6 3 80 5 165 2 103 5 138 9 105 4 -27 12
-59 18 -70 l12 -20 1 20 1 20 9 -20 c6 -15 9 -16 9 -4 1 15 31 24 31 9 0 -4
18 -7 41 -8 29 -1 38 1 34 11 -4 6 3 1 15 -13 12 -14 19 -20 16 -14 -3 7 1 15
10 18 8 3 12 2 9 -3 -3 -5 -1 -12 5 -16 5 -3 10 -1 10 6 0 8 4 8 15 -1 12 -10
15 -10 15 4 0 9 4 16 10 16 5 0 7 -6 4 -13 -3 -8 2 -14 11 -14 8 0 15 5 15 10
0 6 8 3 18 -6 23 -21 32 -21 32 -2 0 8 5 15 10 15 6 0 10 -4 10 -10 0 -5 7
-10 16 -10 9 0 12 5 8 12 -4 7 -3 8 5 4 6 -4 9 -12 6 -17 -4 -5 -1 -9 4 -9 6
0 11 8 11 17 0 14 3 13 16 -6 13 -18 18 -20 25 -10 6 10 9 7 9 -11 1 -25 1
-25 10 -2 5 12 12 22 14 22 3 0 3 -7 0 -15 -4 -8 -1 -15 5 -15 6 0 11 8 12 18
0 9 3 12 5 5 4 -9 13 -9 32 -2 l26 10 -19 -22 c-11 -12 -14 -19 -7 -15 7 4 21
2 30 -6 15 -12 16 -11 3 5 -13 17 -12 18 15 11 16 -4 35 -12 43 -18 11 -8 13
-8 7 2 -4 6 -3 12 3 12 5 0 15 -8 20 -17 6 -10 11 -12 11 -5 0 6 8 12 18 12
14 0 15 -2 2 -10 -17 -11 -17 -11 23 -14 21 -1 26 2 22 14 -4 13 -3 13 7 -1 7
-9 19 -14 26 -12 6 3 12 0 12 -5 0 -14 48 -21 54 -8 2 6 5 3 5 -6 1 -20 21
-25 21 -5 0 7 3 8 8 2 4 -5 16 -15 27 -22 11 -6 19 -16 17 -23 -1 -6 2 -9 8
-5 6 3 8 10 5 15 -5 8 37 -9 79 -31 13 -7 16 -7 11 0 -3 6 -3 11 2 12 4 0 16
2 26 4 9 2 15 -1 11 -6 -3 -5 0 -9 7 -9 8 0 7 -5 -2 -17 -13 -15 -12 -15 9 -4
12 7 20 17 16 23 -4 7 -3 8 4 4 7 -4 12 -16 12 -27 0 -16 4 -18 17 -11 18 10
63 -4 63 -20 0 -17 28 -7 44 17 16 24 16 24 -61 79 -219 155 -536 287 -793
330 -215 36 -459 46 -620 25z m1387 -384 c0 -8 -4 -12 -9 -9 -5 3 -6 10 -3 15
9 13 12 11 12 -6z m28 -15 c-3 -5 -2 -10 4 -10 5 0 11 5 13 11 2 7 9 5 17 -5
12 -14 12 -16 -3 -10 -9 4 -16 1 -16 -6 0 -10 -3 -10 -15 0 -17 14 -20 30 -4
30 5 0 7 -4 4 -10z m-1005 -3390 c0 -5 -7 -7 -15 -4 -8 4 -15 8 -15 10 0 2 7
4 15 4 8 0 15 -4 15 -10z"/>
<path d="M5230 5560 c-8 -16 -8 -20 2 -18 7 2 12 -3 10 -10 -1 -7 6 -15 15
-19 10 -4 21 -11 25 -17 5 -7 13 -4 22 9 9 11 16 17 17 13 1 -5 2 -11 3 -15 2
-15 36 -57 36 -46 0 6 -7 16 -15 23 -8 7 -13 16 -10 20 2 4 -5 16 -16 26 -13
12 -19 14 -17 5 2 -7 -3 -16 -11 -19 -10 -3 -12 0 -7 13 4 11 0 25 -10 36 -22
24 -31 24 -44 -1z m45 -29 c-3 -6 -11 -11 -17 -11 -6 0 -6 6 2 15 14 17 26 13
15 -4z"/>
<path d="M5220 5506 c0 -2 7 -7 16 -10 8 -3 12 -2 9 4 -6 10 -25 14 -25 6z"/>
<path d="M1930 5408 c0 -14 18 -17 28 -5 8 10 6 13 -9 13 -10 0 -19 -4 -19 -8z"/>
<path d="M3865 4813 c-143 -17 -246 -55 -361 -134 -146 -101 -254 -247 -317
-427 -39 -112 -48 -269 -23 -385 18 -80 67 -190 118 -265 31 -45 236 -252 250
-252 3 0 41 39 84 88 152 173 284 299 242 233 -7 -12 -17 -21 -23 -21 -5 0 -1
-7 9 -15 14 -11 16 -15 5 -15 -18 -1 48 -30 68 -30 17 0 73 -53 73 -69 0 -6
11 -11 24 -11 17 0 26 -7 30 -25 4 -14 11 -23 16 -20 6 3 10 1 10 -5 0 -14 25
-40 39 -40 6 0 11 -4 11 -9 0 -6 14 -18 30 -28 17 -9 30 -21 30 -26 0 -4 -4
-5 -10 -2 -15 9 -12 -4 5 -21 13 -14 15 -13 15 3 1 17 1 17 11 0 5 -9 7 -22 4
-27 -4 -7 5 -9 25 -5 30 5 31 5 15 -12 -12 -11 -14 -18 -6 -21 6 -2 9 -8 6
-13 -4 -5 1 -6 10 -3 11 5 14 2 9 -11 -6 -14 -3 -16 13 -11 14 4 23 1 27 -9 4
-10 -1 -15 -17 -17 -12 0 10 -4 48 -8 85 -9 435 -12 435 -4 0 3 -116 129 -257
281 -366 391 -452 486 -453 500 0 23 165 26 1036 18 516 -4 884 -3 887 2 8 12
-11 276 -27 364 -10 64 -15 74 -32 72 -10 -2 -377 -6 -814 -9 -718 -7 -796 -6
-808 9 -11 13 9 39 157 193 94 98 171 182 171 186 0 8 -703 9 -765 1z m35
-1193 c0 -5 -5 -10 -11 -10 -5 0 -7 5 -4 10 3 6 8 10 11 10 2 0 4 -4 4 -10z
m87 -56 c-3 -3 -12 -4 -19 -1 -8 3 -5 6 6 6 11 1 17 -2 13 -5z"/>
<path d="M838 4543 c12 -2 30 -2 40 0 9 3 -1 5 -23 4 -22 0 -30 -2 -17 -4z"/>
<path d="M718 4508 c2 -10 6 -18 7 -18 1 0 5 8 7 18 3 11 0 19 -7 19 -7 0 -10
-8 -7 -19z"/>
<path d="M807 4441 c-4 -17 -3 -21 5 -13 5 5 8 16 6 23 -3 8 -7 3 -11 -10z"/>
<path d="M756 4427 c3 -10 9 -15 12 -12 3 3 0 11 -7 18 -10 9 -11 8 -5 -6z"/>
<path d="M770 4391 c-8 -15 -7 -19 6 -17 22 3 40 36 20 36 -8 0 -20 -9 -26
-19z"/>
<path d="M831 4389 c16 -10 66 -12 56 -3 -4 4 -21 8 -38 9 -22 2 -27 0 -18 -6z"/>
<path d="M5146 3139 c-52 -145 -95 -218 -178 -295 -52 -47 -84 -84 -74 -84 2
0 11 6 18 14 8 7 25 17 38 21 l25 8 -25 -22 c-14 -13 -20 -20 -13 -17 6 4 18
0 26 -8 8 -9 24 -12 36 -9 12 3 21 2 20 -3 -3 -19 3 -48 8 -37 3 8 13 3 30
-15 14 -15 33 -26 42 -24 13 2 12 0 -3 -13 -20 -15 -20 -15 0 -16 10 -1 23 0
29 1 5 1 7 -2 3 -6 -12 -11 12 -34 34 -34 13 0 18 -6 16 -17 -2 -10 6 -26 17
-36 11 -10 15 -16 10 -13 -6 2 -17 1 -25 -5 -12 -7 -9 -9 9 -9 24 0 24 0 5
-16 -10 -8 -12 -12 -4 -8 56 27 326 285 318 303 -2 3 -83 84 -180 180 -118
116 -179 170 -182 160z"/>
<path d="M4930 2745 c0 -2 6 -8 13 -14 10 -8 14 -7 14 2 0 8 -6 14 -14 14 -7
0 -13 -1 -13 -2z"/>
<path d="M5047 2656 c-4 -10 -1 -13 8 -9 8 3 12 9 9 14 -7 12 -11 11 -17 -5z"/>
<path d="M2745 1940 c3 -5 8 -10 11 -10 2 0 4 5 4 10 0 6 -5 10 -11 10 -5 0
-7 -4 -4 -10z"/>
<path d="M2806 1911 c-7 -10 43 -46 51 -37 3 3 -6 11 -20 17 -15 7 -24 16 -21
20 3 5 3 9 0 9 -3 0 -7 -4 -10 -9z"/>
<path d="M5435 1859 c-4 -6 -5 -12 -2 -15 2 -3 7 2 10 11 7 17 1 20 -8 4z"/>
<path d="M2946 1832 c-3 -5 10 -16 29 -25 19 -9 35 -12 35 -7 0 6 -6 10 -14
10 -8 0 -21 7 -30 15 -8 8 -17 11 -20 7z"/>
<path d="M3006 1831 c-3 -5 1 -11 9 -14 9 -4 12 -1 8 9 -6 16 -10 17 -17 5z"/>
<path d="M5450 1826 c0 -2 8 -10 18 -17 15 -13 16 -12 3 4 -13 16 -21 21 -21
13z"/>
<path d="M3121 1750 c-9 -5 -5 -9 10 -13 28 -7 31 -6 14 10 -6 6 -18 8 -24 3z"/>
<path d="M3182 1731 c-11 -7 -11 -9 0 -14 9 -3 15 1 15 9 0 8 -1 14 -1 14 -1
0 -7 -4 -14 -9z"/>
<path d="M3388 1653 c7 -3 16 -2 19 1 4 3 -2 6 -13 5 -11 0 -14 -3 -6 -6z"/>
</g>
</svg>
